<svg width="138" height="119" viewBox="0 0 138 119" fill="none" xmlns="http://www.w3.org/2000/svg">
<path d="M138 94.4833C138 102.832 79.8683 119 68.9749 119C58.0815 119 0 103.126 0 93.6015C0 84.077 0.0960292 0 0.0960292 0H137.889C137.889 0 138 86.1935 138 94.4833Z" fill="#EB2316"/>
<path d="M69 20C49.7303 20 34 35.7303 34 55C34 74.2697 49.7303 90 69 90C88.2697 90 104 74.2697 104 55C104 35.7303 88.2697 20 69 20Z" fill="white"/>
<path d="M86.5983 29.9298C83.9438 36.8118 77.8483 38.1882 69 38.1882C68.0168 38.1882 67.132 38.1882 66.2472 38.1882C65.3623 38.1882 64.5758 38.1882 63.691 38.1882C63.0028 38.1882 62.2163 38.1882 61.5281 38.1882C62.8062 35.1405 64.7725 33.0759 67.5253 31.8961C71.4578 30.1264 76.4719 30.1264 80.9944 30.1264C83.059 30.0281 84.927 30.0281 86.5983 29.9298Z" fill="#009139"/>
<path d="M89.3512 32.0927C85.4186 40.7444 76.5703 41.5309 69.0984 41.5309C67.4271 41.5309 65.854 41.5309 64.3793 41.5309L62.5113 48.9045C72.2445 40.941 85.1237 48.8062 83.7473 60.8006C82.8624 68.8624 77.0619 74.1714 70.9664 75.6461C64.3793 77.3174 57.0057 74.8596 53.663 68.0759C53.2697 67.3877 52.6799 65.9129 52.4832 65.1264L59.4636 63.3568C59.5619 63.75 59.7585 64.1433 60.0535 64.5365C64.7726 72.1068 74.2108 68.2725 75.2922 60.5056C76.3737 52.5422 65.1658 48.3146 60.1518 57.6545L53.9579 55H53.8596L56.8091 43.0056C57.0057 42.1208 57.5956 39.7613 57.6939 39.368C61.0366 26.882 71.9495 26.6854 80.7978 26.6854C77.1602 25.2107 73.2276 24.3259 69.0001 24.3259C52.09 24.3259 38.3259 38.0899 38.3259 55C38.3259 71.9101 52.09 85.6742 69.0001 85.6742C85.9102 85.6742 99.6742 71.9101 99.6742 55C99.6742 45.8568 95.6433 37.6967 89.3512 32.0927Z" fill="#E52020"/>
</svg>
