<svg width="100" height="100" viewBox="0 0 100 100" fill="none" xmlns="http://www.w3.org/2000/svg">
<path d="M50 0C22.4719 0 0 22.4719 0 50C0 77.5281 22.4719 100 50 100C77.5281 100 100 77.5281 100 50C100 22.4719 77.5281 0 50 0Z" fill="white"/>
<path d="M75.1404 14.1854C71.3483 24.0169 62.6404 25.9832 50 25.9832C48.5955 25.9832 47.3314 25.9832 46.0674 25.9832C44.8033 25.9832 43.6797 25.9832 42.4157 25.9832C41.4325 25.9832 40.309 25.9832 39.3258 25.9832C41.1516 21.6292 43.9606 18.6798 47.8932 16.9944C53.5112 14.4663 60.6741 14.4663 67.1348 14.4663C70.0842 14.3259 72.7528 14.3259 75.1404 14.1854Z" fill="#009139"/>
<path d="M79.0731 17.2753C73.4551 29.6349 60.8146 30.7585 50.1405 30.7585C47.7528 30.7585 45.5057 30.7585 43.3989 30.7585L40.7304 41.2922C54.6349 29.9158 73.0337 41.1517 71.0675 58.2865C69.8034 69.8034 61.5169 77.3877 52.809 79.4944C43.3989 81.8821 32.8652 78.3708 28.0899 68.6798C27.5281 67.6967 26.6854 65.5899 26.4045 64.4663L36.3764 61.9382C36.5169 62.5 36.7978 63.0618 37.2191 63.6236C43.9607 74.4382 57.4439 68.9607 58.9888 57.8652C60.5337 46.4888 44.5225 40.4495 37.3596 53.7922L28.5113 50H28.3708L32.5843 32.8652C32.8652 31.6012 33.7079 28.2304 33.8484 27.6686C38.6236 9.8315 54.2135 9.5506 66.854 9.5506C61.6573 7.44385 56.0394 6.17981 50 6.17981C25.8427 6.17981 6.17981 25.8427 6.17981 50C6.17981 74.1573 25.8427 93.8203 50 93.8203C74.1573 93.8203 93.8203 74.1573 93.8203 50C93.8203 36.9382 88.0618 25.2809 79.0731 17.2753Z" fill="#E52020"/>
</svg>
