<svg width="100" height="82" viewBox="0 0 100 82" fill="none" xmlns="http://www.w3.org/2000/svg">
<g filter="url(#filter0_f)">
<path d="M15.3209 79.3743C11.3875 79.3743 2.00002 46.7072 2.00002 40.5455C2.00002 34.3837 11.6838 2 16.1711 2L15.3209 79.3743Z" fill="#682700"/>
</g>
<path d="M16.464 80.2246C11.7316 80.2246 2.56684 47.2729 2.56684 41.0981C2.56684 34.9232 11.565 2 16.9639 2C22.3628 2 100 2.05443 100 2.05443L100 80.1616C100 80.1616 21.163 80.2246 16.464 80.2246Z" fill="#EB2316"/>
<path d="M53 19C40.8876 19 31 28.8876 31 41C31 53.1124 40.8876 63 53 63C65.1124 63 75 53.1124 75 41C75 28.8876 65.1124 19 53 19Z" fill="white"/>
<path d="M64.0618 25.2416C62.3932 29.5674 58.5618 30.4326 53 30.4326C52.382 30.4326 51.8258 30.4326 51.2696 30.4326C50.7135 30.4326 50.2191 30.4326 49.6629 30.4326C49.2303 30.4326 48.7359 30.4326 48.3033 30.4326C49.1067 28.5169 50.3427 27.2191 52.073 26.4775C54.5449 25.3652 57.6966 25.3652 60.5393 25.3652C61.837 25.3034 63.0112 25.3034 64.0618 25.2416Z" fill="#009139"/>
<path d="M65.7921 26.6011C63.3202 32.0393 57.7584 32.5337 53.0618 32.5337C52.0112 32.5337 51.0225 32.5337 50.0955 32.5337L48.9214 37.1686C55.0393 32.1629 63.1348 37.1068 62.2697 44.6461C61.7135 49.7135 58.0674 53.0506 54.236 53.9775C50.0955 55.0281 45.4607 53.4832 43.3596 49.2191C43.1124 48.7865 42.7416 47.8596 42.618 47.3652L47.0056 46.2528C47.0674 46.5 47.191 46.7472 47.3764 46.9944C50.3427 51.7528 56.2753 49.3427 56.9551 44.4607C57.6348 39.4551 50.5899 36.7978 47.4382 42.6686L43.545 41H43.4832L45.3371 33.4607C45.4607 32.9045 45.8315 31.4214 45.8933 31.1742C47.9944 23.3259 54.8539 23.2023 60.4157 23.2023C58.1292 22.2753 55.6573 21.7191 53 21.7191C42.3708 21.7191 33.7191 30.3708 33.7191 41C33.7191 51.6292 42.3708 60.2809 53 60.2809C63.6292 60.2809 72.2809 51.6292 72.2809 41C72.2809 35.2528 69.7472 30.1236 65.7921 26.6011Z" fill="#E52020"/>
<defs>
<filter id="filter0_f" x="0" y="0" width="18.1711" height="81.3743" filterUnits="userSpaceOnUse" color-interpolation-filters="sRGB">
<feFlood flood-opacity="0" result="BackgroundImageFix"/>
<feBlend mode="normal" in="SourceGraphic" in2="BackgroundImageFix" result="shape"/>
<feGaussianBlur stdDeviation="1" result="effect1_foregroundBlur"/>
</filter>
</defs>
</svg>
