<svg width="97" height="65" viewBox="0 0 97 65" fill="none" xmlns="http://www.w3.org/2000/svg">
<path d="M1.44707 23.6422C0.647875 19.1097 3.67428 14.7876 8.20673 13.9884L79.3318 1.4471C83.8642 0.647902 88.1864 3.67431 88.9856 8.20676L94.7738 41.0337C95.573 45.5661 92.5466 49.8883 88.0142 50.6875L16.8891 63.2287C12.3567 64.0279 8.03454 61.0015 7.23534 56.4691L1.44707 23.6422Z" fill="#009139"/>
<path d="M16.3655 37.961L17.906 33.5867C17.9525 33.4808 17.9729 33.412 17.9618 33.3489C17.9507 33.2857 17.8764 33.2337 17.6813 33.2355L15.3668 33.2204C15.3036 33.2315 15.2349 33.2111 15.2033 33.2166C15.1086 33.2333 15.0826 33.2705 15.0472 33.4395L14.5919 35.4735C14.5361 35.7112 14.5119 35.9434 14.4673 36.2444C14.354 35.9713 14.1887 35.7725 14.055 35.5681L12.8738 33.8553C12.7828 33.7085 12.7457 33.6825 12.6825 33.6937C12.6509 33.6992 12.5562 33.7159 12.4986 33.7587L10.2917 34.5385C10.1078 34.6035 10.0558 34.6778 10.0725 34.7726C10.0836 34.8357 10.1263 34.8933 10.2062 34.9769L13.2967 38.4696L11.405 43.6222C11.3585 43.7281 11.3437 43.8284 11.3548 43.8916C11.3715 43.9863 11.4402 44.0067 11.6353 44.0049L13.9535 43.8566C14.0483 43.8399 14.117 43.8604 14.1486 43.8548C14.2117 43.8437 14.2693 43.8009 14.2731 43.6375L15.0555 41.0574C15.1168 40.8512 15.1726 40.6135 15.1856 40.3181C15.3305 40.5856 15.4326 40.7956 15.5607 40.9683L17.1524 43.1623C17.2378 43.2775 17.3065 43.298 17.3697 43.2868C17.4013 43.2813 17.4644 43.2701 17.5276 43.259L19.8255 42.6259C20.015 42.5925 20.067 42.5182 20.0503 42.4234C20.0392 42.3603 19.9964 42.3027 19.9166 42.2191L16.3655 37.961ZM30.7065 34.1624C31.771 32.9979 32.4641 31.5732 32.1523 29.8048C31.5342 26.2994 28.2911 24.5269 24.3437 25.2229C21.7226 25.6851 19.5546 27.2396 18.7072 29.6357C18.6403 29.8103 18.5734 29.9849 18.6012 30.1428C18.618 30.2375 18.6662 30.3267 18.7777 30.4047L21.8368 32.2423C21.9111 32.2943 21.9799 32.3148 22.043 32.3036C22.6115 32.2034 22.6433 29.9836 24.9487 29.5771C25.9908 29.3934 26.8173 29.8337 27.0011 30.8759C27.2906 32.518 26.3581 33.1383 24.7791 33.4167L23.737 33.6005C23.2317 33.6896 23.1592 33.8326 23.2483 34.3379L23.7773 37.3379C23.8775 37.9063 24.0094 37.9157 24.5147 37.8266L25.4937 37.6539C27.9569 37.2196 28.6905 37.8717 28.9467 39.3244C29.2195 40.8718 28.4429 41.8227 26.6429 42.1401C25.6639 42.3128 23.6745 42.11 21.8615 41.6156C21.6925 41.5803 21.5123 41.4818 21.386 41.5041C21.2913 41.5208 21.2077 41.6007 21.1724 41.7697L20.8097 45.2526C20.7892 45.3214 20.8003 45.3845 20.8115 45.4477C20.8338 45.574 20.9452 45.652 21.1198 45.7189C23.1555 46.9229 26.8633 46.5296 27.8107 46.3626C32.295 45.5719 35.1487 42.3661 34.4638 38.4818C34.0851 36.3344 32.6216 34.8667 30.7065 34.1624ZM37.759 26.1461L36.6221 26.3466L36.1766 23.8202L39.2714 23.2745C39.3977 23.2522 39.4869 23.204 39.5222 23.0349L39.5985 22.1749C39.5929 22.1433 39.5874 22.1117 39.5818 22.0801C39.5595 21.9538 39.4648 21.9705 39.4016 21.9817L34.6647 22.8169C34.5068 22.8448 34.4864 22.9135 34.5086 23.0398L36.0622 31.8505C36.09 32.0084 36.1328 32.066 36.3222 32.0326L38.5644 31.6372C39.9539 31.3922 40.6023 30.822 40.8884 30.4134C41.2265 29.9305 41.3882 29.1856 41.2379 28.333C40.798 25.8382 38.7379 25.9735 37.759 26.1461ZM39.5491 29.8355C39.211 30.3184 38.7745 30.428 38.3008 30.5115L37.4165 30.6674L36.8653 27.541L37.7811 27.3796C38.16 27.3127 38.7025 27.2496 39.1482 27.5618C39.594 27.8739 39.7091 28.342 39.7648 28.6578C39.8316 29.0368 39.8353 29.4269 39.5491 29.8355ZM45.9985 30.5869C48.1144 30.2138 48.9301 28.3768 48.3566 25.1241C47.7997 21.9661 46.4736 20.5393 44.3894 20.9068C42.0209 21.3245 41.5358 23.559 42.0091 26.2433C42.5566 29.5331 43.9143 30.9544 45.9985 30.5869ZM44.5694 22.1124C45.6747 21.9175 46.3822 23.1603 46.7887 25.4656C47.2342 27.992 46.9294 29.218 45.8241 29.4129C44.6556 29.6189 43.9741 28.3389 43.5676 26.0336C43.1277 23.5388 43.4641 22.3073 44.5694 22.1124ZM52.1534 25.7896C52.0792 24.6305 51.8992 23.4249 51.7581 22.4404L51.5298 21.1456L53.6141 20.7781L54.9895 28.5782C55.0229 28.7677 55.0916 28.7881 55.2495 28.7603L56.2916 28.5766C56.4495 28.5487 56.5016 28.4744 56.4737 28.3165L54.9201 19.5058C54.8867 19.3163 54.818 19.2959 54.6601 19.3237L50.2074 20.1089C50.0811 20.1312 50.0235 20.1739 50.0513 20.3318L50.2963 21.7213C50.6694 23.8371 51.3005 27.0471 50.5927 28.0185C50.3586 28.3528 49.9963 28.5144 49.7493 28.5905L49.5653 28.6555C49.4706 28.6722 49.3926 28.7836 49.4093 28.8784C49.4148 28.91 49.4204 28.9415 49.426 28.9731L49.7547 29.7292C49.8085 29.8499 49.8512 29.9075 50.0723 29.8686C52.1565 29.501 52.2498 27.0751 52.1534 25.7896ZM60.7916 22.15L59.56 22.3671L58.9307 18.7986C58.9029 18.6408 58.8286 18.5887 58.6707 18.6166L57.6286 18.8003C57.4391 18.8337 57.4187 18.9025 57.4465 19.0604L59.0001 27.871C59.0279 28.0289 59.0966 28.0494 59.2545 28.0215L61.6546 27.5984C62.2862 27.487 63.2224 27.2568 63.8002 26.4711C64.352 25.7226 64.2964 24.8532 64.1962 24.2848C64.0793 23.6216 63.8044 22.9863 63.1729 22.5441C62.3612 22.0034 61.4547 22.033 60.7916 22.15ZM61.2535 26.4317L60.3061 26.5988L59.7716 23.5672L60.7821 23.389C61.319 23.2943 62.4316 23.326 62.6599 24.6208C62.8493 25.6945 62.043 26.2925 61.2535 26.4317ZM66.6497 26.7501L75.113 25.2578C75.2709 25.23 75.3285 25.1873 75.2951 24.9978L73.7416 16.1871C73.7137 16.0292 73.6394 15.9772 73.4815 16.005L72.4394 16.1888C72.2815 16.2166 72.2295 16.2909 72.2573 16.4488L73.6327 24.249L71.4221 24.6387L70.0467 16.8386C70.0189 16.6807 69.9446 16.6287 69.7867 16.6565L68.7446 16.8403C68.5867 16.8681 68.5347 16.9424 68.5625 17.1003L69.9379 24.9005L67.7273 25.2902L66.3519 17.4901C66.3241 17.3322 66.2814 17.2746 66.0919 17.308L65.0498 17.4918C64.8919 17.5196 64.8399 17.5939 64.8677 17.7518L66.4213 26.5625C66.412 26.6944 66.4918 26.778 66.6497 26.7501ZM80.6722 15.9744C80.7985 15.9522 80.8821 15.8723 80.8914 15.7404L80.9788 14.9435C80.9677 14.8804 80.9937 14.8432 80.9826 14.7801C80.9659 14.6853 80.9287 14.6593 80.7392 14.6927L76.4128 15.4556C76.2234 15.489 76.1974 15.5261 76.2308 15.7156L77.7788 24.4947C77.8122 24.6842 77.8177 24.7158 78.0388 24.6768L82.302 23.9251C82.4915 23.8917 82.5175 23.8545 82.4841 23.6651L82.3505 22.9071C82.3171 22.7177 82.2743 22.6601 82.0849 22.6935L79.0848 23.2225L78.5558 20.2224L80.9874 19.7937C81.1769 19.7603 81.2029 19.7231 81.1695 19.5336L81.0414 18.8073C81.008 18.6178 80.9709 18.5918 80.7814 18.6252L78.3498 19.054L77.8932 16.4645L80.6722 15.9744ZM39.9139 38.3674L38.777 38.5679L38.3316 36.0415L41.4264 35.4958C41.5527 35.4735 41.6419 35.4252 41.6772 35.2562L41.7535 34.3962C41.7479 34.3646 41.7423 34.333 41.7367 34.3014C41.7145 34.1751 41.6197 34.1918 41.5566 34.2029L36.8196 35.0382C36.6617 35.066 36.6413 35.1348 36.6636 35.2611L38.2171 44.0718C38.245 44.2297 38.2877 44.2873 38.4772 44.2539L40.7193 43.8585C42.1088 43.6135 42.7572 43.0433 43.0433 42.6347C43.3815 42.1518 43.5432 41.4069 43.3928 40.5542C42.9529 38.0595 40.8929 38.1948 39.9139 38.3674ZM41.7041 42.0568C41.3659 42.5397 40.9294 42.6493 40.4557 42.7328L39.5715 42.8887L39.0202 39.7623L39.936 39.6008C40.315 39.534 40.8574 39.4709 41.3032 39.7831C41.7489 40.0952 41.864 40.5633 41.9197 40.8791C41.9866 41.2581 41.9902 41.6482 41.7041 42.0568ZM47.4006 33.3679C47.3041 33.1895 47.3041 33.1895 47.1146 33.2229L46.0093 33.4178C45.8198 33.4512 45.8198 33.4512 45.7901 33.6518L44.6427 42.8411C44.6222 42.9098 44.6389 43.0046 44.6445 43.0361C44.6612 43.1309 44.7299 43.1513 44.8878 43.1235L45.9615 42.9342C46.1194 42.9063 46.177 42.8636 46.1808 42.7001L46.4207 40.1832L48.9155 39.7433L50.0019 42.0264C50.0613 42.1787 50.13 42.1991 50.2879 42.1713L51.4564 41.9653C51.6458 41.9319 51.6663 41.8631 51.6496 41.7684C51.6384 41.7052 51.6273 41.6421 51.5846 41.5845L47.4006 33.3679ZM46.484 39.0649L46.6999 36.2266C46.7167 35.7677 46.7279 35.2773 46.7224 34.6922C46.9174 35.2439 47.0957 35.7009 47.2999 36.1208L48.442 38.7197L46.484 39.0649ZM57.1309 31.4893L52.6781 32.2745C52.5518 32.2968 52.4942 32.3395 52.5221 32.4974L52.7671 33.8869C53.1402 36.0027 53.7713 39.2127 53.0634 40.1841C52.8293 40.5184 52.4671 40.68 52.22 40.7561L52.0361 40.8211C51.9413 40.8378 51.8633 40.9492 51.88 41.044C51.8856 41.0756 51.8912 41.1071 51.8967 41.1387L52.2254 41.8948C52.2793 42.0155 52.322 42.0731 52.543 42.0342C54.6273 41.6666 54.6889 39.2462 54.6241 37.9552C54.5499 36.7961 54.3699 35.5905 54.2289 34.6059L54.0006 33.3112L56.0848 32.9437L57.4602 40.7438C57.4936 40.9333 57.5623 40.9537 57.7202 40.9259L58.7624 40.7421C58.9203 40.7143 58.9723 40.64 58.9444 40.4821L57.3853 31.6398C57.3575 31.4819 57.2888 31.4615 57.1309 31.4893ZM64.8047 30.1362L60.352 30.9214C60.2256 30.9436 60.1681 30.9864 60.1959 31.1443L60.4409 32.5338C60.814 34.6496 61.4451 37.8596 60.7372 38.831C60.5031 39.1653 60.1409 39.3269 59.8938 39.403L59.7099 39.468C59.6152 39.4847 59.5371 39.5961 59.5538 39.6909C59.5594 39.7225 59.565 39.754 59.5706 39.7856L59.8992 40.5417C59.9531 40.6624 59.9958 40.72 60.2169 40.6811C62.3011 40.3135 62.3627 37.8931 62.2979 36.6021C62.2238 35.443 62.0438 34.2374 61.9027 33.2528L61.6744 31.9581L63.7587 31.5906L65.134 39.3907C65.1674 39.5802 65.2362 39.6006 65.3941 39.5728L66.4362 39.389C66.5941 39.3612 66.6461 39.2869 66.6183 39.129L65.0591 30.2867C65.0313 30.1288 64.9626 30.1084 64.8047 30.1362ZM70.1342 28.9686C67.7658 29.3862 67.2806 31.6208 67.7539 34.305C68.3275 37.5577 69.6536 38.9845 71.7378 38.617C73.8536 38.244 74.6694 36.4069 74.0958 33.1542C73.5706 29.9907 72.2185 28.6011 70.1342 28.9686ZM71.5949 37.4375C70.4265 37.6435 69.745 36.3635 69.3385 34.0582C68.8986 31.5634 69.2034 30.3375 70.3402 30.137C71.4455 29.9421 72.1531 31.1849 72.5596 33.4902C73.005 36.0166 72.7002 37.2426 71.5949 37.4375ZM80.0421 31.9755C80.8799 31.3719 81.1736 30.6364 80.9954 29.6258C80.8784 28.9626 80.5088 28.344 80.0259 28.0059C79.4743 27.6473 78.9783 27.6045 77.6836 27.8328L75.473 28.2226C75.2835 28.256 75.2575 28.2931 75.2909 28.4826L76.8389 37.2617C76.8723 37.4512 76.8779 37.4828 77.0989 37.4438L79.2148 37.0707C80.099 36.9148 80.3201 36.8758 80.7399 36.6715C81.7746 36.2612 82.2912 35.1281 82.074 33.8965C81.9163 32.8172 81.2346 32.0908 80.0421 31.9755ZM76.8735 29.1478L77.8524 28.9752C78.863 28.797 79.3403 29.1036 79.5074 30.051C79.6856 31.0615 79.2694 31.6559 78.2273 31.8396L77.343 31.9956L76.8419 29.1534L76.8735 29.1478ZM79.0775 35.9227L78.0985 36.0953L77.5751 33.1269L78.5225 32.9598C79.7541 32.7426 80.3744 33.1217 80.5526 34.1322C80.768 35.1688 80.3091 35.7056 79.0775 35.9227Z" fill="white"/>
</svg>
